<?xml version="1.0" encoding="UTF-8"?>
<svg id="Layer_1" xmlns="http://www.w3.org/2000/svg" viewBox="0 0 5000 1481.25">
  <defs>
    <style>
      .cls-1 {
        fill: #ffffff;
      }

      .cls-2 {
        fill: #ffffff;
      }

      .cls-3 {
        fill: #ffffff;
      }

      .cls-4 {
        fill: #ffffff;
      }

      .cls-5 {
        fill: #ffffff;
      }

      .cls-6 {
        fill: #8cb5d8;
      }

      .cls-7 {
        fill: #ffffff;
      }
    </style>
  </defs>
  <g>
    <path class="cls-6" d="M843.83,1118.36c2.02.73,4,1.93,6.07,2.09,4.11.33,8.27.11,12.41.11,369.92,0,739.84,0,1109.75,0,4.12,0,8.25,0,13.69,0-1.44,3.01-2.07,5.47-3.54,7.24-24.57,29.42-49.29,58.72-73.87,88.13-24.58,29.41-49.22,58.78-73.49,88.44-14.02,17.13-13.72,17.38-36.4,17.38-444.05,0-888.1,0-1332.16,0h-16.66c6.08-7.69,10.27-13.26,14.74-18.59,32.82-39.18,65.76-78.26,98.52-117.48,17.35-20.76,34.42-41.75,51.66-62.59.9-1.09,2.31-1.75,3.48-2.61,72.08.06,144.16.14,216.25.07,3.18,0,6.36-1.43,9.54-2.19Z"/>
    <path class="cls-6" d="M1487.23,824.44c4.69.71,9.37,2.04,14.06,2.04,231.4.1,462.8.09,694.2.09,31.61,0,63.21.22,94.82-.16,7.21-.09,11.81,2.46,16.15,7.91,44.43,55.88,89.07,111.59,133.6,167.39,5.13,6.42,9.97,13.07,15.84,20.79-3.82.4-6.53.93-9.25.94-38.38.07-76.76.07-115.14.07-238.17,0-476.34,0-714.52,0-4.14,0-8.29-.19-12.41.02-4.86.25-8.25-1.24-11.46-5.36-30.74-39.4-61.75-78.59-92.67-117.84-17.44-22.14-34.9-44.26-52.27-66.44-1.56-2-2.56-4.44-3.81-6.67,9.97-.32,19.94-.5,29.89-1.02,4.34-.23,8.65-1.15,12.98-1.76Z"/>
    <path class="cls-6" d="M1384.72,159.5c52.72,66.22,104.83,131.66,157.28,197.54-13.9,17.4-27.46,34.37-41.01,51.34-31.65,39.65-63.3,79.3-94.96,118.94-34.01,42.58-68.06,85.13-102.06,127.71-10.79,13.51-21.63,26.98-32.15,40.69-5.14,6.7-10.81,9.85-19.87,9.82-96.34-.39-192.67-.24-289.01-.24h-12.2c2.33-9.72,423.31-534.29,433.98-545.8Z"/>
    <path class="cls-1" d="M1487.23,824.44c-4.32.61-8.63,1.53-12.98,1.76-9.95.52-19.92.7-29.89,1.02-2.18-2.02-4.66-3.79-6.5-6.08-28.04-34.89-56.01-69.85-83.97-104.81-.91-1.13-1.58-2.46-2.73-4.27,8.43-10.63,16.78-21.22,25.2-31.76,65.03-81.43,130.11-162.81,195.01-244.34,3.84-4.83,7.67-7,14.02-6.99,126.81.19,253.62.19,380.43,0,6.35,0,10.22,2.15,14.04,6.96,76.48,96.35,153.1,192.59,229.67,288.87,1.98,2.49,3.65,5.23,6.52,9.37-8.78,0-15.78,0-22.78,0-20.32,0-40.65-.35-60.96.18-7.56.2-12.31-2.29-16.96-8.15-57.06-71.9-114.49-143.51-171.43-215.51-6.23-7.88-12.62-10.81-22.58-10.72-55.69.47-111.38.33-167.07.09-6.62-.03-11.02,1.87-15.19,7.12-82.12,103.4-164.41,206.67-246.64,309.97-1.86,2.34-3.49,4.87-5.23,7.31Z"/>
    <path class="cls-3" d="M843.83,1118.36c-3.18.76-6.36,2.19-9.54,2.19-72.08.07-144.16-.01-216.25-.07,5.15-6.89,10.12-13.93,15.48-20.66,84.84-106.53,169.73-213.02,254.62-319.51,1.41-1.76,3.05-3.38,4.21-5.3,3.02-5.02,7.14-6.6,13.1-6.59,126.82.19,253.63.18,380.45.02,5.82,0,9.6,1.6,13.3,6.25,64.04,80.77,128.27,161.39,192.45,242.05,1.28,1.61,2.35,3.38,4.72,6.81-5.19,0-8.43,0-11.66,0-24.08,0-48.18-.35-72.25.2-8.05.18-12.89-2.66-17.77-8.82-45.99-58.11-92.3-115.97-138.79-174.25h-191.25c-7.39,9.24-15.12,18.89-22.82,28.56-64.68,81.23-129.35,162.46-194.01,243.7-1.4,1.76-2.67,3.61-3.99,5.42Z"/>
  </g>
  <g>
    <path class="cls-3" d="M3674.62,770.94c43.68,72.62,86.95,144.55,130.84,217.5h-105.95c-37.88-69.27-75.85-138.7-113.71-207.93h-63.38v207.86h-87.73v-490.99c2.09-.18,4.32-.55,6.55-.56,57.18-.03,114.36-.2,171.54.04,33.6.14,66.29,5.67,97.1,19.7,35.26,16.05,61.15,41.16,71.27,79.41,11.17,42.25,7.98,83.09-17.68,120.03-18.83,27.11-46,42.36-77,51.61-3.59,1.07-7.2,2.03-11.84,3.33ZM3522.59,709.53c33.25-.75,65.62-.92,97.93-2.46,16.17-.77,31.91-5.06,46.37-13.06,23.48-12.97,32.94-33.65,32.17-59.46-.74-24.75-13.25-42.08-35.55-52.5-13.51-6.31-27.85-10.09-42.61-10.48-32.09-.84-64.2-.7-96.31-.93-.52,0-1.04.34-2,.67v138.21Z"/>
    <path class="cls-3" d="M4475.41,497.4v75.47h-237.54v125.33c24.76.01,49.64,0,74.53,0,25.05,0,50.11,0,75.16,0h75.42v73.69h-224.17c-1.9,6.83-2.41,125.83-.72,138.65h249.56v77.69h-337.61v-490.85h325.37Z"/>
    <path class="cls-3" d="M3102.3,915.11c-24.08,30.06-52.93,52.23-87.57,66.82-41.1,17.32-84.12,21.89-128.15,18.6-37.99-2.84-74.26-12.39-107.99-30.48-56.34-30.22-94.87-75.87-115.13-136.28-19.16-57.13-20.35-115.26-3.44-173.08,19.84-67.83,61.96-118.09,125.95-148.1,74.31-34.86,150.91-38.46,228.36-10.24,28.61,10.43,53.92,26.32,74.24,49.45,1.92,2.18,3.66,4.53,6.06,7.51-22.31,17.67-44.35,35.13-66.44,52.62-4.98-5.27-9.35-10.48-14.31-15.04-18.02-16.58-39.45-26.78-63.28-31.44-56.45-11.03-107.11,1-150.01,40.25-26.71,24.44-42.71,55.37-50.02,90.55-9.88,47.5-6.21,94.01,15.11,137.95,23.49,48.42,62.59,76.96,115.74,85.88,29.58,4.97,58.68,3.25,87.02-7.16,23.18-8.52,42.77-22.15,58.57-41.17,1.31-1.58,2.66-3.14,4.01-4.69.19-.21.49-.33,1.49-.98,22.79,16,45.85,32.2,69.82,49.03Z"/>
    <path class="cls-4" d="M4288.62,1181.08c-12.05,2.16-23.87,4.28-36.83,6.6v-17.98h-119.73v103.63h118.8v-35.96h-61.44v-28.4h98.47c.4.7,1.17,1.43,1.17,2.16-.09,21.8-.16,43.59-.51,65.39-.06,3.76-1.07,7.59-2.22,11.21-2.28,7.19-7.02,12.41-14.44,14.24-6.25,1.54-12.71,3.07-19.08,3.12-41.26.27-82.52.19-123.78.07-4.68-.01-9.41-.74-14.02-1.66-12.4-2.47-18.85-9.16-20.99-21.89-.88-5.21-1.4-10.55-1.43-15.83-.14-28.88-.26-57.77.07-86.65.08-7.28,1.34-14.66,3.02-21.77,1.82-7.67,7.04-13.02,14.86-14.82,6.55-1.51,13.3-3.01,19.97-3.06,40.37-.28,80.75-.21,121.13-.05,5.55.02,11.18.83,16.62,1.99,10.07,2.15,16.78,8.16,19.07,18.52,1.52,6.89,2.64,13.8,1.28,21.13Z"/>
    <path class="cls-4" d="M3020.8,1139.35c20.32,0,40.64-.13,60.96.08,6.15.06,12.35.71,18.41,1.76,11.81,2.04,18.68,9.39,20.63,21.13.86,5.21,1.51,10.52,1.53,15.79.14,29.45.27,58.9-.08,88.35-.09,7.26-1.48,14.62-3.21,21.7-1.72,7.01-6.75,11.83-13.74,13.71-5.93,1.59-12.1,3.17-18.17,3.2-44.47.27-88.94.2-133.4.07-4.67-.01-9.38-.88-13.99-1.77-11.41-2.19-18.12-9.31-20.15-20.61-.93-5.19-1.49-10.52-1.52-15.79-.14-29.74-.26-59.49.06-89.23.08-6.97,1.36-14.05,3.04-20.85,1.81-7.32,6.91-12.52,14.32-14.24,7.11-1.65,14.44-3.02,21.71-3.16,21.2-.41,42.41-.15,63.61-.15ZM2957.14,1273.21h126.03v-103.47h-126.03v103.47Z"/>
    <path class="cls-4" d="M4515.83,1273.34v-36.95h-9.03c-31.23,0-62.46.2-93.69-.15-7.85-.09-15.79-1.49-23.49-3.17-7.79-1.7-12.65-7.22-14.85-14.87-.89-3.1-1.97-6.3-1.98-9.46-.03-15.27-.61-30.61.72-45.77,1.16-13.24,8.45-19.62,21.63-21.98,5.19-.93,10.51-1.55,15.78-1.57,32.7-.14,65.41-.16,98.11.01,5.85.03,11.78.72,17.52,1.87,11.18,2.26,18.38,8.97,20.25,20.52.89,5.47,1.29,11.01,2,17.35-11.66,2.79-22.63,5.41-34.76,8.31v-18.26h-107.93v34.89c3.34,0,6.44,0,9.54,0,31.23,0,62.46-.15,93.69.11,7.3.06,14.69.94,21.84,2.4,9.2,1.88,14.82,8.2,17.02,17.22,1.11,4.54,1.87,9.27,1.99,13.94.29,11.19.11,22.39.1,33.58,0,1.47-.1,2.95-.23,4.41-1.67,18.27-8.51,25.71-26.63,28.34-5.8.84-11.72,1.19-17.59,1.21-32.11.11-64.23.16-96.34-.02-7.04-.04-14.12-.68-21.09-1.71-11.7-1.73-19.34-8.46-21.51-20.27-1.26-6.89-1.57-13.95-2.39-21.77,11.79-2.51,22.88-4.87,34.87-7.42v19.21h116.45Z"/>
    <path class="cls-4" d="M3422.6,1304.97v-165.08c2.36-.19,4.61-.52,6.85-.52,34.48-.03,68.98-.48,103.45.22,12.23.25,24.8,1.96,36.53,5.35,29.43,8.5,47.9,27.97,52.89,58.77,2.76,17.08,2.1,34.09-4.21,50.48-10.11,26.29-28.87,42.73-56.7,47.58-12.71,2.21-25.74,3.24-38.65,3.44-31.53.48-63.07.17-94.61.15-1.7,0-3.4-.23-5.55-.39ZM3461.45,1273.34c22.45,0,43.97.7,65.4-.3,10.39-.49,20.9-3.36,30.88-6.62,11.91-3.89,19.46-12.93,23.05-24.96,3.97-13.29,4.1-26.68.35-40.06-4.06-14.45-13.29-24.24-27.58-28.45-7.24-2.13-14.99-3.32-22.53-3.48-20.91-.46-41.83-.17-62.75-.13-2.23,0-4.45.38-6.82.6v103.41Z"/>
    <path class="cls-5" d="M3978.08,1249.8c-.51-36.47-1.02-72.94-1.53-109.93h34.97v165.48c-8.04,0-15.92.22-23.78-.15-2.05-.1-4.28-1.72-5.99-3.16-39.73-33.34-79.41-66.75-119.06-100.18-3.55-2.99-6.84-6.28-11.06-10.18v113.1h-33.4c-1.61-5.89-2.11-153.35-.36-165.41,7.7,0,15.57-.16,23.43.12,1.81.06,3.84,1.31,5.32,2.55,41.12,34.43,82.19,68.92,123.26,103.42,2.24,1.88,4.37,3.89,6.56,5.83.57.28,1.13.56,1.7.84-.02-.77-.03-1.55-.05-2.32Z"/>
    <path class="cls-2" d="M2639.82,1139.77h38.28v63.18h119.71v-63.04h38.98v165.08h-38.66v-70.47h-119.82v70.44h-38.49v-165.18Z"/>
    <path class="cls-7" d="M3203.56,1304.96v-165.1h37.94v133.64h124.15v31.46h-162.09Z"/>
    <path class="cls-4" d="M3694.99,1139.54h36.58c1.72,6.32,2.3,151.71.65,165.33h-36.73c-1.66-6.01-2.22-151.6-.5-165.33Z"/>
  </g>
</svg>